<?xml version="1.0" encoding="utf-8"?>
<!-- Generator: Adobe Illustrator 24.1.2, SVG Export Plug-In . SVG Version: 6.00 Build 0)  -->
<svg version="1.1" id="Layer_1" xmlns="http://www.w3.org/2000/svg" xmlns:xlink="http://www.w3.org/1999/xlink" x="0px" y="0px"
	 viewBox="0 0 24 24" style="enable-background:new 0 0 24 24;" xml:space="preserve">
<style type="text/css">
	.st0{fill:#5d5da8;}
</style>
<g>
	<path class="st0" d="M15.87,13c0.06,0,0.1,0.06,0.07,0.12l-3.83,6.61c-0.01,0.02-0.04,0.04-0.07,0.04H9.7
		c-0.06,0-0.1-0.06-0.07-0.12l3.83-6.61C13.48,13.02,13.5,13,13.53,13H15.87z M13.59,11.11c-0.03,0-0.05-0.01-0.07-0.04L9.64,4.34
		C9.61,4.29,9.65,4.23,9.7,4.23h2.34c0.03,0,0.05,0.01,0.07,0.04L16,10.99c0.03,0.05-0.01,0.12-0.07,0.12H13.59z"/>
	<path class="st0" d="M14.06,4.34c-0.03-0.05,0.01-0.12,0.07-0.12h2.34c0.03,0,0.05,0.01,0.07,0.04l4.46,7.7
		c0.01,0.02,0.01,0.05,0,0.08l-4.46,7.7c-0.01,0.02-0.04,0.04-0.07,0.04h-2.34c-0.06,0-0.1-0.06-0.07-0.12L18.49,12L14.06,4.34z
		 M12.15,11.96c0.01,0.02,0.01,0.05,0,0.08l-4.48,7.7c-0.03,0.05-0.1,0.05-0.13,0l-4.53-7.7C3,12.01,3,11.99,3.01,11.96l4.48-7.7
		c0.03-0.05,0.1-0.05,0.13,0L12.15,11.96z"/>
</g>
</svg>
