<?xml version="1.0" encoding="UTF-8" standalone="no" ?>
<!DOCTYPE svg PUBLIC "-//W3C//DTD SVG 1.1//EN" "http://www.w3.org/Graphics/SVG/1.1/DTD/svg11.dtd">
<svg xmlns="http://www.w3.org/2000/svg" xmlns:xlink="http://www.w3.org/1999/xlink" version="1.1" width="1080" height="1080" viewBox="0 0 1080 1080" xml:space="preserve">
<desc>Created with Fabric.js 5.2.4</desc>
<defs>
</defs>
<g transform="matrix(1 0 0 1 540 540)" id="b6d50f77-1de6-441f-adb6-49a9b4505a72"  >
<rect style="stroke: none; stroke-width: 1; stroke-dasharray: none; stroke-linecap: butt; stroke-dashoffset: 0; stroke-linejoin: miter; stroke-miterlimit: 4; fill: rgb(0,0,0); fill-rule: nonzero; opacity: 1; visibility: hidden;" vector-effect="non-scaling-stroke"  x="-540" y="-540" rx="0" ry="0" width="1080" height="1080" />
</g>
<g transform="matrix(1 0 0 1 540 540)" id="c810d089-38a4-4788-bccd-c54b6c96cd89"  >
</g>
<g transform="matrix(1.33 0 0 1.33 555.96 238.65)"  >
<path style="stroke: none; stroke-width: 1; stroke-dasharray: none; stroke-linecap: butt; stroke-dashoffset: 0; stroke-linejoin: miter; stroke-miterlimit: 4; fill: rgb(254,254,254); fill-rule: nonzero; opacity: 1;" vector-effect="non-scaling-stroke"  transform=" translate(-350, -128.41)" d="M 447.61 128.41 C 447.61 182.32 403.90700000000004 226.019 350.00100000000003 226.019 C 296.095 226.019 252.39200000000005 182.32 252.39200000000005 128.41000000000003 C 252.39200000000005 74.50400000000002 296.095 30.80500000000002 350.00100000000003 30.80500000000002 C 403.90700000000004 30.80500000000002 447.61 74.50400000000002 447.61 128.41000000000003" stroke-linecap="round" />
</g>
<g transform="matrix(1.33 0 0 1.33 555.97 585.81)"  >
<path style="stroke: none; stroke-width: 1; stroke-dasharray: none; stroke-linecap: butt; stroke-dashoffset: 0; stroke-linejoin: miter; stroke-miterlimit: 4; fill: rgb(254,254,254); fill-rule: nonzero; opacity: 1;" vector-effect="non-scaling-stroke"  transform=" translate(-350.01, -388.78)" d="M 384.95 248.36 L 315.05899999999997 248.36 C 285.121 248.406875 256.42199999999997 260.321 235.25799999999998 281.497 C 214.094 302.673 202.19599999999997 331.37600000000003 202.164 361.313 L 202.164 474.153 C 202.148375 488.75800000000004 207.9452 502.766 218.26899999999998 513.094 C 228.59699999999998 523.422 242.60899999999998 529.215 257.21 529.1990000000001 L 442.79999999999995 529.1990000000001 C 457.40199999999993 529.2146250000001 471.41299999999995 523.4217000000001 481.741 513.094 C 492.065 502.7660000000001 497.86199999999997 488.75800000000004 497.846 474.153 L 497.846 361.313 C 497.81475 331.375 485.916 302.67199999999997 464.752 281.49699999999996 C 443.588 260.32099999999997 414.889 248.40699999999995 384.951 248.35999999999996 z" stroke-linecap="round" />
</g>
<g transform="matrix(1.33 0 0 1.33 761.53 352.07)"  >
<path style="stroke: none; stroke-width: 1; stroke-dasharray: none; stroke-linecap: butt; stroke-dashoffset: 0; stroke-linejoin: miter; stroke-miterlimit: 4; fill: rgb(254,254,254); fill-rule: nonzero; opacity: 1;" vector-effect="non-scaling-stroke"  transform=" translate(-504.17, -213.48)" d="M 483.34 276.98 C 490.07829999999996 279.2144 497.12899999999996 280.34720000000004 504.227 280.3394 C 521.2189999999999 280.323774 537.567 273.8433 549.9499999999999 262.2144 C 562.333 250.5814 569.8249999999999 234.67540000000002 570.9029999999999 217.7184 C 571.9810999999999 200.7654 566.5631999999999 184.0344 555.7549999999999 170.9294 C 544.9429999999999 157.82039999999998 529.5479999999999 149.3244 512.6959999999999 147.1564 C 495.8479999999999 144.9923 478.80099999999993 149.32049999999998 465.0279999999999 159.2694 C 451.2549999999999 169.2147 441.7859999999999 184.0314 438.5399999999999 200.7074 C 437.7001599999999 204.8949 437.2899999999999 209.1527 437.3094999999999 213.41840000000002 C 437.2938739999999 227.51640000000003 441.7391999999999 241.25440000000003 450.0084999999999 252.6724 C 458.2779999999999 264.0864 469.94249999999994 272.5984 483.3404999999999 276.9814 z" stroke-linecap="round" />
</g>
<g transform="matrix(1.33 0 0 1.33 824.24 589.99)"  >
<path style="stroke: none; stroke-width: 1; stroke-dasharray: none; stroke-linecap: butt; stroke-dashoffset: 0; stroke-linejoin: miter; stroke-miterlimit: 4; fill: rgb(254,254,254); fill-rule: nonzero; opacity: 1;" vector-effect="non-scaling-stroke"  transform=" translate(-551.2, -391.92)" d="M 504.22 295.68 L 496.88410000000005 295.68 C 508.59510000000006 315.563 514.7281 338.23900000000003 514.6381 361.313 L 514.6381 474.153 C 514.653725 478.8561 514.18498 483.5475 513.2358 488.153 L 556.1338000000001 488.153 C 569.2428000000001 488.153 581.8138 482.94210000000004 591.0788000000001 473.665 C 600.3405000000001 464.39160000000004 605.5398000000001 451.81300000000005 605.5238000000002 438.704 L 605.5238000000002 396.985 C 605.5081750000002 370.122 594.8328000000001 344.36400000000003 575.8358000000002 325.368 C 556.8398000000002 306.372 531.0818000000002 295.69599999999997 504.21880000000016 295.68 z" stroke-linecap="round" />
</g>
<g transform="matrix(1.33 0 0 1.33 350.37 352.24)"  >
<path style="stroke: none; stroke-width: 1; stroke-dasharray: none; stroke-linecap: butt; stroke-dashoffset: 0; stroke-linejoin: miter; stroke-miterlimit: 4; fill: rgb(254,254,254); fill-rule: nonzero; opacity: 1;" vector-effect="non-scaling-stroke"  transform=" translate(-195.8, -213.61)" d="M 128.91 213.41 C 128.91 231.176 135.9452 248.219 148.476 260.812 C 161.003 273.402 178.011 280.523 195.777 280.613 C 202.8747 280.620812 209.92499999999998 279.488 216.664 277.2536 C 230.06199999999998 272.8669 241.726 264.3586 249.99599999999998 252.9446 C 258.2655 241.5266 262.71099999999996 227.7886 262.695 213.69060000000002 C 262.714532 209.425 262.30438 205.16330000000002 261.4645 200.9796 C 257.277 178.9486 242.3235 160.4836 221.6445 151.80360000000002 C 200.9645 143.1278 177.3125 145.3974 158.66049999999998 157.84660000000002 C 140.00849999999997 170.29560000000004 128.83649999999997 191.26460000000003 128.91049999999998 213.69060000000002 z" stroke-linecap="round" />
</g>
<g transform="matrix(1.33 0 0 1.33 287.69 590.17)"  >
<path style="stroke: none; stroke-width: 1; stroke-dasharray: none; stroke-linecap: butt; stroke-dashoffset: 0; stroke-linejoin: miter; stroke-miterlimit: 4; fill: rgb(254,254,254); fill-rule: nonzero; opacity: 1;" vector-effect="non-scaling-stroke"  transform=" translate(-148.79, -392.05)" d="M 185.36 361.31 C 185.32093700000001 338.33 191.4498 315.759 203.114 295.95799999999997 L 195.7781 295.95799999999997 C 168.9581 295.95799999999997 143.2311 306.59099999999995 124.2431 325.52799999999996 C 105.2511 344.46599999999995 94.5481 370.16099999999994 94.4731 396.981 L 94.4731 438.7 C 94.457475 451.80899999999997 99.6567 464.388 108.91810000000001 473.661 C 118.18370000000002 482.9383 130.7541 488.149 143.8631 488.149 L 186.7611 488.149 C 185.81188 483.5435 185.3431 478.8521 185.3588 474.149 z" stroke-linecap="round" />
</g>
<g transform="matrix(1.33 0 0 1.33 793.89 174.81)"  >
<path style="stroke: none; stroke-width: 1; stroke-dasharray: none; stroke-linecap: butt; stroke-dashoffset: 0; stroke-linejoin: miter; stroke-miterlimit: 4; fill: rgb(254,254,254); fill-rule: nonzero; opacity: 1;" vector-effect="non-scaling-stroke"  transform=" translate(-528.45, -80.53)" d="M 578.09 83.441 L 578.09 77.8394 C 578.09 74.1285 576.6134000000001 70.566 573.9884000000001 67.941 C 571.3634000000001 65.316 567.8009000000001 63.839400000000005 564.09 63.839400000000005 L 545.215 63.839400000000005 L 545.215 44.8004 C 545.215 41.08560000000001 543.7423 37.527 541.1173 34.902 C 538.4884 32.2731 534.9298 30.8004 531.215 30.8004 L 525.6134000000001 30.8004 L 525.6173070000001 30.8004 C 521.882907 30.76915 518.2931070000001 32.2301 515.6446070000001 34.859 C 512.996207 37.4879 511.50400700000006 41.066 511.50400700000006 44.8004 L 511.50400700000006 63.7304 L 492.57400700000005 63.726493000000005 C 484.96460700000006 63.87883300000001 478.8590070000001 70.062393 478.801007 77.671493 L 478.801007 83.273093 C 478.832257 91.011393 485.113507 97.273093 492.85600700000003 97.273093 L 511.78600700000004 97.273093 L 511.78600700000004 116.203093 L 511.78600700000004 116.199187 C 511.78600700000004 123.94138699999999 518.043807 130.22618699999998 525.786007 130.258187 L 531.387607 130.258187 L 531.3837 130.258187 C 539.1259 130.226937 545.3837 123.94178699999999 545.3837 116.199187 L 545.3837 97.441187 L 564.3136999999999 97.441187 C 571.9581999999999 97.316187 578.0907 91.085687 578.0907 83.441187 z" stroke-linecap="round" />
</g>
</svg>